<svg width="52" height="52" viewBox="0 0 52 52" fill="none" xmlns="http://www.w3.org/2000/svg">
<path d="M36.8333 17.3333H41.1667C43.5599 17.3333 45.5 19.2734 45.5 21.6667V34.6667C45.5 37.0599 43.5599 39 41.1667 39H36.8333V47.6667L28.1667 39H19.5C18.3034 39 17.22 38.515 16.4359 37.7308M16.4359 37.7308L23.8333 30.3333H32.5C34.8932 30.3333 36.8333 28.3932 36.8333 26V13C36.8333 10.6068 34.8932 8.66667 32.5 8.66667H10.8333C8.4401 8.66667 6.5 10.6068 6.5 13V26C6.5 28.3932 8.4401 30.3333 10.8333 30.3333H15.1667V39L16.4359 37.7308Z" stroke="#156CEF" stroke-width="2" stroke-linecap="round" stroke-linejoin="round"/>
</svg>
