<svg width="96" height="82" viewBox="0 0 96 82" fill="none" xmlns="http://www.w3.org/2000/svg">
<path d="M8.09529 68.6736L5.5258 70.6264L8.05889 72.6262L13.5309 76.9462L14.9088 78.0341L16.3998 77.1072C23.9481 72.4151 30.1739 65.3343 35.1335 56.0162C40.2943 46.6812 42.924 37.2505 42.924 27.752C42.924 20.269 41.1041 14.0637 37.161 9.44771C33.3675 4.77806 28.1114 2.5 21.704 2.5C16.2022 2.5 11.5175 4.103 7.89815 7.49615L7.89814 7.49615C4.24944 10.9168 2.5 15.4552 2.5 20.84C2.5 25.8574 4.16155 30.1611 7.55223 33.5518C10.9429 36.9425 15.2466 38.604 20.264 38.604C21.6253 38.604 22.9351 38.4552 24.1854 38.151C23.6587 43.1054 22.1006 48.2941 19.4559 53.7304L19.4496 53.7434L19.4434 53.7565C16.3061 60.4001 12.5012 65.3251 8.09529 68.6736ZM58.4953 68.6736L55.9258 70.6264L58.4589 72.6262L63.9309 76.9462L65.3088 78.0341L66.7998 77.1072C74.3481 72.415 80.574 65.3342 85.5337 56.0159C90.6943 46.681 93.324 37.2504 93.324 27.752C93.324 20.2691 91.5041 14.0637 87.561 9.44778C83.7676 4.77808 78.5114 2.5 72.104 2.5C66.6022 2.5 61.9175 4.103 58.2981 7.49615L60.008 9.31999L58.2981 7.49615C54.6494 10.9168 52.9 15.4552 52.9 20.84C52.9 25.8574 54.5616 30.1611 57.9522 33.5518C61.3429 36.9425 65.6466 38.604 70.664 38.604C72.0253 38.604 73.3351 38.4552 74.5854 38.151C74.0587 43.1054 72.5005 48.2941 69.8559 53.7303L69.8496 53.7434L69.8434 53.7565C66.7061 60.4001 62.9012 65.3251 58.4953 68.6736Z" stroke="#4A5568" stroke-width="5"/>
</svg>
