<svg width="16" height="16" viewBox="0 0 16 16" fill="none" xmlns="http://www.w3.org/2000/svg">
<g id="vuesax/outline/volume-slash">
<g id="vuesax/outline/volume-slash_2">
<g id="volume-slash">
<path id="Vector" d="M4.66732 11.8334H3.33398C1.72065 11.8334 0.833984 10.9467 0.833984 9.33341V6.66674C0.833984 5.05341 1.72065 4.16674 3.33398 4.16674H4.28732C4.44065 4.16674 4.59398 4.12008 4.72732 4.04008L6.67398 2.82008C7.64732 2.21341 8.59398 2.10008 9.34065 2.51341C10.0873 2.92674 10.494 3.78674 10.494 4.94008V5.58008C10.494 5.85341 10.2673 6.08008 9.99398 6.08008C9.72065 6.08008 9.49398 5.85341 9.49398 5.58008V4.94008C9.49398 4.18008 9.26065 3.61341 8.85398 3.39341C8.44732 3.16674 7.84732 3.26674 7.20065 3.67341L5.25398 4.88674C4.96732 5.07341 4.62732 5.16674 4.28732 5.16674H3.33398C2.28065 5.16674 1.83398 5.61341 1.83398 6.66674V9.33341C1.83398 10.3867 2.28065 10.8334 3.33398 10.8334H4.66732C4.94065 10.8334 5.16732 11.0601 5.16732 11.3334C5.16732 11.6067 4.94065 11.8334 4.66732 11.8334Z" fill="#FDFDFD" fill-opacity="0.95"/>
<path id="Vector_2" d="M8.36575 13.7266C7.83908 13.7266 7.25908 13.54 6.67908 13.1733C6.44575 13.0266 6.37242 12.72 6.51908 12.4866C6.66575 12.2533 6.97242 12.18 7.20575 12.3266C7.85242 12.7266 8.45242 12.8333 8.85908 12.6066C9.26575 12.38 9.49908 11.8133 9.49908 11.06V8.6333C9.49908 8.35997 9.72575 8.1333 9.99908 8.1333C10.2724 8.1333 10.4991 8.35997 10.4991 8.6333V11.06C10.4991 12.2066 10.0857 13.0733 9.34575 13.4866C9.04575 13.6466 8.71242 13.7266 8.36575 13.7266Z" fill="#FDFDFD" fill-opacity="0.95"/>
<path id="Vector_3" d="M12.0002 11.1669C11.8935 11.1669 11.7935 11.1335 11.7002 11.0669C11.4802 10.9002 11.4335 10.5869 11.6002 10.3669C12.4402 9.24688 12.6202 7.76021 12.0802 6.47354C11.9735 6.22021 12.0935 5.92688 12.3468 5.82021C12.6002 5.71354 12.8935 5.83354 13.0002 6.08688C13.6802 7.70021 13.4469 9.57354 12.4002 10.9735C12.3002 11.1002 12.1535 11.1669 12.0002 11.1669Z" fill="#FDFDFD" fill-opacity="0.95"/>
<path id="Vector_4" d="M13.2209 12.8335C13.1142 12.8335 13.0142 12.8001 12.9209 12.7335C12.7009 12.5668 12.6542 12.2535 12.8209 12.0335C14.2476 10.1335 14.5609 7.5868 13.6409 5.39347C13.5342 5.14013 13.6542 4.8468 13.9076 4.74013C14.1676 4.63347 14.4542 4.75347 14.5609 5.0068C15.6209 7.5268 15.2609 10.4468 13.6209 12.6335C13.5276 12.7668 13.3742 12.8335 13.2209 12.8335Z" fill="#FDFDFD" fill-opacity="0.95"/>
<path id="Vector_5" d="M1.33427 15.1666C1.2076 15.1666 1.08094 15.12 0.980938 15.02C0.787604 14.8266 0.787604 14.5066 0.980938 14.3133L14.3143 0.979961C14.5076 0.786628 14.8276 0.786628 15.0209 0.979961C15.2143 1.17329 15.2143 1.49329 15.0209 1.68663L1.6876 15.02C1.5876 15.12 1.46094 15.1666 1.33427 15.1666Z" fill="#FDFDFD" fill-opacity="0.95"/>
</g>
</g>
</g>
</svg>
