<svg width="14" height="14" viewBox="0 0 14 14" fill="none" xmlns="http://www.w3.org/2000/svg">
<path d="M9.42885 10.7976L9.68312 10.6548L9.42885 10.7976ZM9.08725 11.6423L9.00371 11.3628L9.08725 11.6423ZM9.00605 3.64525L9.20881 3.8549L9.00605 3.64525ZM9.42885 3.20236L9.68312 3.34521L9.42885 3.20236ZM9.08725 2.35774L9.00371 2.6372L9.08725 2.35774ZM7.87502 7C7.87502 5.76542 8.38602 4.6507 9.20881 3.8549L8.80328 3.4356C7.87152 4.33675 7.29169 5.60091 7.29169 7H7.87502ZM9.20881 10.1451C8.38602 9.34932 7.87502 8.23457 7.87502 7H7.29169C7.29169 8.39907 7.87152 9.66327 8.80328 10.5644L9.20881 10.1451ZM8.75002 11.375C6.3338 11.375 4.37502 9.41623 4.37502 7H3.79169C3.79169 9.7384 6.01162 11.9583 8.75002 11.9583V11.375ZM4.37502 7C4.37502 4.58375 6.3338 2.625 8.75002 2.625V2.04167C6.01162 2.04167 3.79169 4.26159 3.79169 7H4.37502ZM8.80328 10.5644C8.93173 10.6887 9.02308 10.777 9.08789 10.8438C9.1587 10.9166 9.1748 10.9409 9.17457 10.9405L9.68312 10.6548C9.64118 10.58 9.57287 10.5058 9.5062 10.4372C9.43357 10.3625 9.33435 10.2666 9.20881 10.1451L8.80328 10.5644ZM8.75002 11.9583C8.90402 11.9583 9.03889 11.9611 9.17072 11.9218L9.00371 11.3628C8.97215 11.3722 8.93669 11.375 8.75002 11.375V11.9583ZM9.17457 10.9405C9.26604 11.1034 9.18274 11.3093 9.00371 11.3628L9.17072 11.9218C9.70797 11.7612 9.95775 11.1437 9.68312 10.6548L9.17457 10.9405ZM9.20881 3.8549C9.33435 3.73346 9.43357 3.63757 9.5062 3.56282C9.57287 3.49423 9.64118 3.41994 9.68312 3.34521L9.17457 3.05951C9.1748 3.05912 9.1587 3.08341 9.08789 3.15627C9.02308 3.22296 8.93173 3.31134 8.80328 3.4356L9.20881 3.8549ZM8.75002 2.625C8.93669 2.625 8.97215 2.62777 9.00371 2.6372L9.17072 2.07827C9.03889 2.0389 8.90402 2.04167 8.75002 2.04167V2.625ZM9.68312 3.34521C9.95775 2.85635 9.70797 2.23875 9.17072 2.07827L9.00371 2.6372C9.18274 2.69068 9.26604 2.89662 9.17457 3.05951L9.68312 3.34521Z" fill="#4D4D4D"/>
</svg>
