<svg width="52" height="52" viewBox="0 0 52 52" fill="none" xmlns="http://www.w3.org/2000/svg">
<path d="M19.5 21.6667L27.4248 27.6102C27.8433 27.9241 28.4329 27.8624 28.7774 27.4687L43.3334 10.8333" stroke="black" stroke-width="2" stroke-linecap="round" /> 
<path d="M45.5 26C45.5 30.0744 44.2238 34.0465 41.8505 37.3583C39.4773 40.6702 36.1262 43.1555 32.2681 44.4651C28.4099 45.7748 24.2384 45.8431 20.3394 44.6603C16.4405 43.4776 13.0099 41.1033 10.5296 37.8708C8.04927 34.6384 6.64375 30.7102 6.51044 26.638C6.37713 22.5658 7.52273 18.5541 9.78634 15.1664C12.05 11.7786 15.3179 9.18504 19.1311 7.74983C22.9444 6.31463 27.1114 6.10991 31.047 7.16445" stroke="black" stroke-width="2" stroke-linecap="round" fill="none"/>
</svg>
