<svg width="16" height="16" viewBox="0 0 16 16" fill="none" xmlns="http://www.w3.org/2000/svg">
<path id="Vector" d="M8.36732 13.7266C7.84065 13.7266 7.26065 13.5399 6.68065 13.1732L4.73398 11.9532C4.60065 11.8732 4.44732 11.8266 4.29398 11.8266H3.33398C1.72065 11.8266 0.833984 10.9399 0.833984 9.32657V6.65991C0.833984 5.04657 1.72065 4.15991 3.33398 4.15991H4.28732C4.44065 4.15991 4.59398 4.11324 4.72732 4.03324L6.67398 2.81324C7.64732 2.20657 8.59398 2.09324 9.34065 2.50657C10.0873 2.91991 10.494 3.77991 10.494 4.93324V11.0466C10.494 12.1932 10.0807 13.0599 9.34065 13.4732C9.04732 13.6466 8.71398 13.7266 8.36732 13.7266ZM3.33398 5.16657C2.28065 5.16657 1.83398 5.61324 1.83398 6.66657V9.33324C1.83398 10.3866 2.28065 10.8332 3.33398 10.8332H4.28732C4.63398 10.8332 4.96732 10.9266 5.26065 11.1132L7.20732 12.3332C7.84732 12.7332 8.45398 12.8399 8.86065 12.6132C9.26732 12.3866 9.50065 11.8199 9.50065 11.0666V4.93991C9.50065 4.17991 9.26732 3.61324 8.86065 3.39324C8.45398 3.16657 7.84732 3.26657 7.20732 3.67324L5.25398 4.88657C4.96732 5.07324 4.62732 5.16657 4.28732 5.16657H3.33398Z" fill="#FDFDFD" fill-opacity="0.95"/>
<path id="Vector_2" d="M12.0002 11.1665C11.8935 11.1665 11.7935 11.1332 11.7002 11.0665C11.4802 10.8999 11.4335 10.5865 11.6002 10.3665C12.6468 8.97319 12.6468 7.02652 11.6002 5.63319C11.4335 5.41319 11.4802 5.09986 11.7002 4.93319C11.9202 4.76652 12.2335 4.81319 12.4002 5.03319C13.7068 6.77986 13.7068 9.21986 12.4002 10.9665C12.3002 11.0999 12.1535 11.1665 12.0002 11.1665Z" fill="#FDFDFD" fill-opacity="0.95"/>
<path id="Vector_3" d="M13.2209 12.8334C13.1142 12.8334 13.0142 12.8 12.9209 12.7334C12.7009 12.5667 12.6542 12.2534 12.8209 12.0334C14.6009 9.66002 14.6009 6.34002 12.8209 3.96669C12.6542 3.74669 12.7009 3.43335 12.9209 3.26669C13.1409 3.10002 13.4542 3.14669 13.6209 3.36669C15.6676 6.09335 15.6676 9.90669 13.6209 12.6334C13.5276 12.7667 13.3742 12.8334 13.2209 12.8334Z" fill="#FDFDFD" fill-opacity="0.95"/>
</svg>
