<svg width="12" height="12" viewBox="0 0 12 12" fill="none" xmlns="http://www.w3.org/2000/svg">
<path d="M2.29601 2.359L2.18251 2.13624L2.29601 2.359ZM1.859 2.79601L1.63624 2.68251L1.859 2.79601ZM1.859 9.204L2.08175 9.0905L1.859 9.204ZM2.29601 9.641L2.40951 9.41825L2.29601 9.641ZM9.704 9.641L9.5905 9.41825L9.704 9.641ZM10.141 9.204L9.91825 9.0905L10.141 9.204ZM10.1346 7.20935L10.1273 6.9595L10.1346 7.20935ZM10.0178 7.2128L10.0251 7.4627L10.0178 7.2128ZM10.141 2.79601L9.91825 2.90951L10.141 2.79601ZM9.704 2.359L9.5905 2.58175L9.704 2.359ZM3.35 2.5H6.125V2H3.35V2.5ZM2.40951 2.58175C2.47535 2.5482 2.56227 2.52516 2.71356 2.5128C2.86777 2.5002 3.06585 2.5 3.35 2.5V2C3.0741 2 2.85214 1.99981 2.67285 2.01446C2.49063 2.02934 2.33059 2.0608 2.18251 2.13624L2.40951 2.58175ZM2.08175 2.90951C2.15365 2.76838 2.26838 2.65365 2.40951 2.58175L2.18251 2.13624C1.94731 2.25609 1.75609 2.44731 1.63624 2.68251L2.08175 2.90951ZM2 3.85C2 3.56585 2.0002 3.36777 2.0128 3.21356C2.02516 3.06227 2.0482 2.97535 2.08175 2.90951L1.63624 2.68251C1.5608 2.83059 1.52934 2.99063 1.51446 3.17285C1.49981 3.35214 1.5 3.5741 1.5 3.85H2ZM2 4.63462V3.85H1.5V4.63462H2ZM1.86539 4.5C1.93973 4.5 2 4.56027 2 4.63462H1.5C1.5 4.83641 1.66359 5 1.86539 5V4.5ZM2 4.5H1.86539V5H2V4.5ZM3.5 6C3.5 5.17155 2.82843 4.5 2 4.5V5C2.55229 5 3 5.4477 3 6H3.5ZM2 7.5C2.82843 7.5 3.5 6.82845 3.5 6H3C3 6.5523 2.55229 7 2 7V7.5ZM1.86539 7.5H2V7H1.86539V7.5ZM2 7.3654C2 7.43975 1.93973 7.5 1.86539 7.5V7C1.66359 7 1.5 7.1636 1.5 7.3654H2ZM2 8.15V7.3654H1.5V8.15H2ZM2.08175 9.0905C2.0482 9.02465 2.02516 8.93775 2.0128 8.78645C2.0002 8.63225 2 8.43415 2 8.15H1.5C1.5 8.4259 1.49981 8.64785 1.51446 8.82715C1.52934 9.00935 1.5608 9.1694 1.63624 9.3175L2.08175 9.0905ZM2.40951 9.41825C2.26838 9.34635 2.15365 9.2316 2.08175 9.0905L1.63624 9.3175C1.75609 9.5527 1.94731 9.7439 2.18251 9.86375L2.40951 9.41825ZM3.35 9.5C3.06585 9.5 2.86777 9.4998 2.71356 9.4872C2.56227 9.47485 2.47535 9.4518 2.40951 9.41825L2.18251 9.86375C2.33059 9.9392 2.49063 9.97065 2.67285 9.98555C2.85214 10.0002 3.0741 10 3.35 10V9.5ZM6.125 9.5H3.35V10H6.125V9.5ZM6.5 9.625V9.5H6V9.625H6.5ZM6.5 9.5C6.5 9.36195 6.61195 9.25 6.75 9.25V8.75C6.3358 8.75 6 9.0858 6 9.5H6.5ZM6.75 9.25C6.88805 9.25 7 9.36195 7 9.5H7.5C7.5 9.0858 7.1642 8.75 6.75 8.75V9.25ZM7 9.5V9.625H7.5V9.5H7ZM8.65 9.5H7.375V10H8.65V9.5ZM9.5905 9.41825C9.52465 9.4518 9.43775 9.47485 9.28645 9.4872C9.13225 9.4998 8.93415 9.5 8.65 9.5V10C8.9259 10 9.14785 10.0002 9.32715 9.98555C9.50935 9.97065 9.6694 9.9392 9.8175 9.86375L9.5905 9.41825ZM9.91825 9.0905C9.84635 9.2316 9.7316 9.34635 9.5905 9.41825L9.8175 9.86375C10.0527 9.7439 10.2439 9.5527 10.3638 9.3175L9.91825 9.0905ZM10 8.15C10 8.43415 9.9998 8.63225 9.9872 8.78645C9.97485 8.93775 9.9518 9.02465 9.91825 9.0905L10.3638 9.3175C10.4392 9.1694 10.4706 9.00935 10.4855 8.82715C10.5002 8.64785 10.5 8.4259 10.5 8.15H10ZM10 7.3214V8.15H10.5V7.3214H10ZM10.1419 7.45925C10.0642 7.46155 10 7.39915 10 7.3214H10.5C10.5 7.1173 10.3314 6.9535 10.1273 6.9595L10.1419 7.45925ZM10.0251 7.4627L10.1419 7.45925L10.1273 6.9595L10.0105 6.9629L10.0251 7.4627ZM8.5 5.98165C8.5 6.817 9.19015 7.4872 10.0251 7.4627L10.0105 6.9629C9.45725 6.97915 9 6.5351 9 5.98165H8.5ZM9.98165 4.5C9.16335 4.5 8.5 5.16335 8.5 5.98165H9C9 5.4395 9.4395 5 9.98165 5V4.5ZM10.1346 4.5H9.98165V5H10.1346V4.5ZM10 4.63462C10 4.56027 10.0602 4.5 10.1346 4.5V5C10.3364 5 10.5 4.83642 10.5 4.63462H10ZM10 3.85V4.63462H10.5V3.85H10ZM9.91825 2.90951C9.9518 2.97535 9.97485 3.06227 9.9872 3.21356C9.9998 3.36777 10 3.56585 10 3.85H10.5C10.5 3.5741 10.5002 3.35214 10.4855 3.17285C10.4706 2.99063 10.4392 2.83059 10.3638 2.68251L9.91825 2.90951ZM9.5905 2.58175C9.7316 2.65365 9.84635 2.76838 9.91825 2.90951L10.3638 2.68251C10.2439 2.44731 10.0527 2.25609 9.8175 2.13624L9.5905 2.58175ZM8.65 2.5C8.93415 2.5 9.13225 2.5002 9.28645 2.5128C9.43775 2.52516 9.52465 2.5482 9.5905 2.58175L9.8175 2.13624C9.6694 2.0608 9.50935 2.02934 9.32715 2.01446C9.14785 1.99981 8.9259 2 8.65 2V2.5ZM7.375 2.5H8.65V2H7.375V2.5ZM7 2.375V2.5H7.5V2.375H7ZM7 2.5C7 2.63807 6.88805 2.75 6.75 2.75V3.25C7.1642 3.25 7.5 2.91422 7.5 2.5H7ZM6.75 2.75C6.61195 2.75 6.5 2.63807 6.5 2.5H6C6 2.91422 6.3358 3.25 6.75 3.25V2.75ZM6.5 2.5V2.375H6V2.5H6.5ZM6.75 4.25C6.88805 4.25 7 4.36193 7 4.5H7.5C7.5 4.08579 7.1642 3.75 6.75 3.75V4.25ZM6.5 4.5C6.5 4.36193 6.61195 4.25 6.75 4.25V3.75C6.3358 3.75 6 4.08579 6 4.5H6.5ZM6.5 5V4.5H6V5H6.5ZM6.75 5.25C6.61195 5.25 6.5 5.13805 6.5 5H6C6 5.4142 6.3358 5.75 6.75 5.75V5.25ZM7 5C7 5.13805 6.88805 5.25 6.75 5.25V5.75C7.1642 5.75 7.5 5.4142 7.5 5H7ZM7 4.5V5H7.5V4.5H7ZM6.75 6.75C6.88805 6.75 7 6.86195 7 7H7.5C7.5 6.5858 7.1642 6.25 6.75 6.25V6.75ZM6.5 7C6.5 6.86195 6.61195 6.75 6.75 6.75V6.25C6.3358 6.25 6 6.5858 6 7H6.5ZM6.5 7.5V7H6V7.5H6.5ZM6.75 7.75C6.61195 7.75 6.5 7.63805 6.5 7.5H6C6 7.9142 6.3358 8.25 6.75 8.25V7.75ZM7 7.5C7 7.63805 6.88805 7.75 6.75 7.75V8.25C7.1642 8.25 7.5 7.9142 7.5 7.5H7ZM7 7V7.5H7.5V7H7ZM7 9.625C7 9.8321 7.1679 10 7.375 10V9.5C7.44405 9.5 7.5 9.55595 7.5 9.625H7ZM7.375 2C7.1679 2 7 2.1679 7 2.375H7.5C7.5 2.44404 7.44405 2.5 7.375 2.5V2ZM6.125 10C6.3321 10 6.5 9.8321 6.5 9.625H6C6 9.55595 6.05595 9.5 6.125 9.5V10ZM6.125 2.5C6.05595 2.5 6 2.44404 6 2.375H6.5C6.5 2.1679 6.3321 2 6.125 2V2.5Z" fill="#718096"/>
</svg>
